<?xml version="1.0" encoding="UTF-8"?>
<!-- Generator: Adobe Illustrator 19.0.0, SVG Export Plug-In . SVG Version: 6.00 Build 0)  -->
<svg version="1.1" id="Layer_1" xmlns="http://www.w3.org/2000/svg" xmlns:xlink="http://www.w3.org/1999/xlink" x="0px" y="0px" viewBox="-444 246 70 70" style="enable-background:new -444 246 70 70;" xml:space="preserve">
<style type="text/css">
	.st0{fill:none;stroke:#22ADF2;stroke-width:3;stroke-linecap:round;stroke-linejoin:round;stroke-miterlimit:10;}
</style>
<g>
	<path class="st0" d="M-441.3,248.5h10.5l3.1,6.6h47.8c0.4,0,0.8,0.1,1.3,0.3c0.4,0.1,0.7,0.4,1,0.7c0.3,0.3,0.6,0.7,0.7,1   c0.1,0.4,0.3,0.8,0.3,1.3c0,0.3,0,0.6-0.1,0.8c-0.1,0.3-0.1,0.6-0.3,0.7l-11.6,21c-0.3,0.6-0.6,1-1,1.4c-0.4,0.4-0.8,0.7-1.4,1.1   c-0.4,0.3-1,0.4-1.5,0.7c-0.6,0.1-1.1,0.3-1.8,0.3h-24l-2.9,5.2v0.1v0.1c0,0.3,0.1,0.4,0.3,0.6c0.1,0.1,0.4,0.3,0.6,0.3h37.5v6.4   H-422c-1,0-1.8-0.1-2.5-0.6c-0.8-0.3-1.5-0.8-2.1-1.4c-0.6-0.6-1-1.3-1.4-2c-0.4-0.8-0.6-1.7-0.6-2.5c0-0.3,0-0.6,0.1-0.8   c0-0.3,0.1-0.6,0.1-0.8c0-0.3,0.1-0.6,0.3-0.7c0.1-0.3,0.3-0.4,0.4-0.7l4.3-8l-11.6-24.5h-6.4L-441.3,248.5L-441.3,248.5z    M-421.9,300.4c0.8,0,1.7,0.1,2.5,0.6c0.8,0.3,1.5,0.8,2.1,1.4c0.6,0.6,1.1,1.3,1.4,2.1c0.3,0.8,0.6,1.5,0.6,2.5   c0,1-0.1,1.8-0.6,2.5c-0.3,0.8-0.8,1.5-1.4,2.1c-0.6,0.6-1.3,1-2.1,1.4c-0.8,0.4-1.5,0.6-2.5,0.6c-1,0-1.8-0.1-2.5-0.6   c-0.8-0.4-1.4-0.8-2-1.4c-0.6-0.6-1.1-1.3-1.4-2.1c-0.3-0.8-0.6-1.7-0.6-2.5c0-0.8,0.1-1.7,0.6-2.5c0.3-0.8,0.8-1.5,1.4-2.1   c0.6-0.6,1.3-1.1,2-1.4C-423.5,300.5-422.7,300.4-421.9,300.4z M-389.4,300.4c1,0,1.8,0.1,2.5,0.6c0.8,0.3,1.5,0.8,2.1,1.4   c0.6,0.6,1,1.3,1.4,2.1c0.4,0.8,0.6,1.5,0.6,2.5c0,1-0.1,1.8-0.6,2.5c-0.4,0.8-0.8,1.5-1.4,2.1c-0.6,0.6-1.3,1-2.1,1.4   c-0.8,0.4-1.7,0.6-2.5,0.6c-0.8,0-1.7-0.1-2.5-0.6c-0.8-0.4-1.5-0.8-2.1-1.4c-0.6-0.6-1-1.3-1.4-2.1c-0.4-0.8-0.6-1.7-0.6-2.5   c0-0.8,0.1-1.7,0.6-2.5c0.4-0.8,0.8-1.5,1.4-2.1c0.6-0.6,1.3-1.1,2.1-1.4C-391.1,300.5-390.3,300.4-389.4,300.4z"/>
</g>
</svg>